<?xml version="1.0" encoding="iso-8859-1"?>
<!-- Generator: Adobe Illustrator 16.0.0, SVG Export Plug-In . SVG Version: 6.00 Build 0)  -->
<!DOCTYPE svg PUBLIC "-//W3C//DTD SVG 1.1//EN" "http://www.w3.org/Graphics/SVG/1.1/DTD/svg11.dtd">
<svg version="1.1" id="Capa_1" xmlns="http://www.w3.org/2000/svg" xmlns:xlink="http://www.w3.org/1999/xlink" x="0px" y="0px"
	 width="167.541px" height="167.541px" viewBox="0 0 167.541 167.541" style="enable-background:new 0 0 167.541 167.541;"
	 xml:space="preserve">
<g>
	<path d="M134.056,152.156H33.481c-1.49,0-2.7-1.213-2.7-2.7c0-1.481,1.21-2.699,2.7-2.699h100.575c1.493,0,2.7,1.218,2.7,2.699
		C136.756,150.943,135.559,152.156,134.056,152.156z M167.39,50.611l-30.95,89.152c-0.38,1.087-1.408,1.814-2.562,1.814H33.66
		c-1.152,0-2.172-0.728-2.555-1.814L0.147,50.611c-0.385-1.113,0-2.36,0.949-3.051c0.947-0.701,2.247-0.707,3.204-0.005
		l42.875,31.477c0.949,0.696,1.334,1.922,0.959,3.035c-0.34,1.022-0.511,1.94-0.511,2.811c0,4.841,3.937,8.775,8.775,8.775
		s8.775-3.935,8.775-8.775c0-4.546-3.436-8.276-7.987-8.675c-0.88-0.082-1.669-0.572-2.106-1.35
		c-0.443-0.767-0.475-1.69-0.103-2.489l26.346-55.562c0.896-1.89,3.986-1.89,4.883,0l26.328,55.511
		c0.38,0.809,0.332,1.761-0.116,2.539c-0.453,0.783-1.276,1.263-2.173,1.316c-4.65,0.256-8.295,4.084-8.295,8.709
		c0,4.841,3.935,8.775,8.775,8.775c4.836,0,8.774-3.935,8.774-8.775c0-1.055-0.211-2.131-0.627-3.206
		c-0.448-1.149-0.063-2.455,0.954-3.175l43.459-30.963c0.954-0.681,2.241-0.67,3.185,0.037
		C167.395,48.283,167.779,49.504,167.39,50.611z M84.926,40.708c-1.32-0.614-2.953-0.063-3.596,1.287L69.24,67.497
		c-0.504,1.055-0.258,2.329,0.593,3.122c3.958,3.71,6.146,8.765,6.146,14.26c0,1.487,1.208,2.7,2.7,2.7c1.49,0,2.7-1.213,2.7-2.7
		c0-6.32-2.281-12.208-6.45-16.775L86.218,44.32C86.849,42.965,86.276,41.356,84.926,40.708z"/>
</g>
<g>
</g>
<g>
</g>
<g>
</g>
<g>
</g>
<g>
</g>
<g>
</g>
<g>
</g>
<g>
</g>
<g>
</g>
<g>
</g>
<g>
</g>
<g>
</g>
<g>
</g>
<g>
</g>
<g>
</g>
</svg>
